<?xml version="1.0" encoding="UTF-8"?>
<svg width="38px" height="172px" viewBox="0 0 38 172" version="1.1" xmlns="http://www.w3.org/2000/svg" xmlns:xlink="http://www.w3.org/1999/xlink">
    <!-- Generator: sketchtool 63.1 (101010) - https://sketch.com -->
    <title>82E2AD06-A62F-404A-806A-0FD3123B9751</title>
    <desc>Created with sketchtool.</desc>
    <g id="Page-1" stroke="none" stroke-width="1" fill="none" fill-rule="evenodd" opacity="0.100000001">
        <g id="01-A-Interviewers-List" transform="translate(-337.000000, -83.000000)" stroke="#0036CC" stroke-width="2">
            <g id="Coditas-Logo-with-guidelines-copy-04" transform="translate(338.000000, 84.000000)">
                <path d="M54,89.8621952 C54,84.9057588 52.0777058,63 26.5653462,63 C13.7062429,63 0,71.665121 0,89.8621952 C0,104.593221 8.98601296,113.080686 19.2422602,115.774332 C21.308014,116.327786 23.4253878,116.630601 25.5326276,116.703584 C25.5326276,116.713827 25.5221769,116.734954 25.5221769,116.745197 C22.423388,131.044087 16.0731666,147.445397 3.74989884,167.040991 C2.94424537,168.322033 3.85947277,170 5.36120576,170 L26.7145061,170 C27.3336305,170 27.9198194,169.698145 28.2795766,169.188865 C48.318623,140.820277 54,106.273109 54,89.8621952" id="Fill-1"></path>
                <path d="M26,0 C12.7450202,0 2,10.969123 2,24.5001599 C2,38.030877 12.7450202,49 26,49 C39.2546665,49 50,38.030877 50,24.5001599 C50,10.969123 39.2546665,0 26,0" id="Fill-2"></path>
            </g>
        </g>
    </g>
</svg>