<svg width="375" height="779" xmlns="http://www.w3.org/2000/svg">
 <!-- Generator: sketchtool 63.1 (101010) - https://sketch.com -->
 <title>2B53E532-7EDA-4106-8591-1CF9280B7C61</title>
 <desc>Created with sketchtool.</desc>
 <defs>
  <filter x="-84.7%" y="-160.0%" width="269.4%" height="420.0%" filterUnits="objectBoundingBox" id="filter-1">
   <feGaussianBlur stdDeviation="24"/>
  </filter>
  <filter x="0.0%" y="0.0%" width="100.0%" height="100.0%" filterUnits="objectBoundingBox" id="filter-2">
   <feGaussianBlur stdDeviation="0"/>
  </filter>
  <linearGradient x1="0%" y1="59.0273437%" x2="100%" y2="59.0273437%" id="linearGradient-3">
   <stop stop-color="#F24015" offset="0%"/>
   <stop stop-color="#FF7755" offset="100%"/>
  </linearGradient>
 </defs>
 <g>
  <title>Layer 1</title>
  <g id="Page-1" fill="none" fill-rule="evenodd">
   <g id="01-B-05-Rating-Options---Awesome---Thank-You">
    <g id="Scene/Home">
     <g id="Background-Shape-2" opacity="0.34589">
      <path d="m299.97996,636.77766c-10.5141,-89.73908 -574.64045,-262.94495 -679.36854,-177.94587c-104.7281,84.99908 -4.04502,244.52012 215.42637,285.36939c219.4714,40.84928 474.45628,-17.68445 463.94217,-107.42352z" id="Background-Shape-1" fill="#F2F2F2"/>
      <path d="m-176.77303,695.08612c9.70942,-76.23685 530.66142,-223.38202 627.37434,-151.17197c96.71292,72.21004 72.233,224.0955 -130.44156,258.79856c-202.67457,34.70306 -506.64221,-31.38973 -496.93278,-107.62659z" fill="#DDE3E9" id="svg_1"/>
     </g>
     <g id="Hanging-Lamp">
      <g id="Light">
       <ellipse id="Hanging-Lamp-Light---Blurr" fill="#FF5930" filter="url(#filter-1)" cx="91.5" cy="232.5" rx="42.5" ry="22.5"/>
       <ellipse id="Hanging-Lamp-Light" fill="#FF5930" opacity="0.2988" filter="url(#filter-2)" cx="91.5" cy="222.5" rx="42.5" ry="22.5"/>
       <path d="m141,238c0,-27.61424 -22.1619,-50 -49.5,-50c-27.3381,0 -49.5,22.38576 -49.5,50" id="Hanging-Lamp-Shadow" fill="url(#linearGradient-3)"/>
       <path d="m141,238c0,-27.61424 -22.1619,-50 -49.5,-50c-27.3381,0 -37.5,22.38576 -37.5,50" id="Hanging-Lamp" fill="#FF5930"/>
      </g>
      <rect id="Wire" fill="#FF5930" x="89" y="0" width="5" height="196"/>
     </g>
     <g id="Hanging-Lamp-2" opacity="0.7">
      <g id="Light">
       <ellipse id="Hanging-Lamp-Light-2" fill="#F2F2F2" cx="198" cy="167.84211" rx="31.76768" ry="18.15789"/>
       <path d="m235,180.35088c0,-22.28518 -16.56546,-40.35088 -37,-40.35088c-20.43454,0 -37,18.0657 -37,40.35088" id="Hanging-Lamp-2" fill="#DDE3E9"/>
      </g>
      <rect id="Wire-2" fill="#DDE3E9" x="196" y="0" width="5" height="163"/>
     </g>
     <g id="Big-Leaf-Plant" transform="translate(716.5 684.5) scale(-1 1) translate(-716.5 -684.5) translate(661 581)">
      <g id="Big-Ass-Leaf-1">
       <path d="m459.63326,1.01723c2.34007,-0.30347 4.83765,-0.19635 7.01385,0.78412c4.62747,2.08515 5.94284,7.88812 5.87938,12.60478c-0.06841,5.07665 -1.08403,10.62163 2.55206,14.71201c1.67143,1.88052 3.75056,3.31967 5.3918,5.23472c1.75369,2.04649 3.12971,4.38808 4.14856,6.90257c1.87071,4.61866 2.7889,10.05013 1.07823,14.89513c-1.50622,4.26574 -5.29568,8.11593 -4.47687,12.96648c0.85409,5.06003 5.66013,8.92847 8.66488,12.6974c3.40053,4.26525 6.5315,9.71663 7.04585,15.31005c0.49321,5.36049 -1.70498,10.78185 -5.07848,14.83395c-6.74028,8.09675 -16.87196,12.06604 -27.08781,12.04156c-4.33736,-0.01078 -9.24815,-0.21872 -12.99118,-2.69287c-1.15684,-0.76474 -1.76715,-1.62271 -2.45485,-2.81541c-0.61661,-1.06951 -1.43114,-1.76518 -2.37394,-2.52196c-2.07133,-1.66223 -3.5672,-3.90251 -4.52182,-6.41027c-3.70702,-9.74034 -0.74416,-21.79033 4.44482,-30.43982c1.22956,-2.04924 2.23622,-4.02123 1.6389,-6.4638c-0.62333,-2.54976 -2.15533,-4.84949 -3.51037,-7.04122c-1.339,-2.16612 -2.86764,-4.23256 -3.91419,-6.5746c-1.09609,-2.45346 -1.40474,-5.02264 -1.21107,-7.70774c0.36398,-5.04379 2.41517,-9.69824 5.31919,-13.75457c2.79712,-3.90712 6.0814,-7.64563 6.08876,-12.76515c0.00808,-5.42598 -3.40926,-10.25273 -1.95343,-15.76928c0.60282,-2.2843 1.81359,-4.62801 3.76483,-5.99749c1.87129,-1.31342 4.34208,-1.74318 6.5429,-2.02859z" id="leaf-1" fill="#DDE3E9"/>
       <path d="m458.10419,9.69145c0.04388,-0.72873 0.85822,-1.1658 1.4993,-0.97564c0.84382,0.25043 0.82759,1.08736 0.80531,1.83301c-0.06829,2.29192 0.24423,4.51931 0.76326,6.74313c1.07874,4.62357 3.07239,8.88343 4.65187,13.32474c1.5781,4.43759 2.31889,9.01927 1.39311,13.71487c-0.87273,4.4273 -2.24382,8.73985 -3.13698,13.17273c-0.78725,3.90702 -1.62492,8.0272 -0.42604,11.92427c1.15361,3.75121 3.7041,6.80617 5.54066,10.19617c3.80191,7.01752 5.48861,14.80262 5.71421,22.81417c0.10455,3.72026 0.0104,7.47472 -0.80266,11.12349c-0.46797,2.10096 -1.09685,4.94033 -2.79294,6.39084c-0.78211,0.66891 -2.11977,0.90021 -2.77804,-0.09037c-0.61802,-0.92908 -0.07585,-2.36739 0.12035,-3.35765c0.84968,-4.28666 1.02062,-8.66745 0.81719,-13.0201c-0.19688,-4.21612 -0.66616,-8.42519 -1.91622,-12.45176c-1.16022,-3.73671 -2.92282,-7.093 -4.99729,-10.36183c-2.11387,-3.33116 -4.31142,-6.66944 -5.18486,-10.61652c-0.88745,-4.00884 -0.16649,-8.08796 0.79753,-12.02024c1.01948,-4.15925 2.35483,-8.19917 3.73535,-12.24572c1.34536,-3.94306 1.82223,-7.6739 1.07953,-11.80077c-1.46716,-8.15332 -5.39432,-15.80613 -4.88264,-24.29682z" id="middle-thing-1" fill="#C5CFD6"/>
      </g>
      <g id="Big-Ass-Leaf-2">
       <path d="m521.287,11.37013c2.89723,0.93201 5.77473,2.43579 7.84001,4.79374c4.39147,5.01428 3.04405,12.59278 0.61979,18.12805c-2.60942,5.95766 -6.5637,11.9461 -4.3346,18.78181c1.02455,3.14254 2.74741,5.98865 3.71932,9.15532c1.03838,3.38391 1.48657,6.90806 1.42947,10.43945c-0.10571,6.4861 -1.73415,13.40685 -6.15533,18.18534c-3.89267,4.20714 -10.25769,6.66445 -11.71333,12.84436c-1.51859,6.44675 2.194,13.66551 3.84239,19.77347c1.86557,6.91233 2.82388,15.07681 0.64087,21.96613c-2.09177,6.60258 -7.37219,11.79291 -13.34966,14.71804c-11.94334,5.84519 -25.81019,4.94582 -37.78608,-0.71665c-5.08452,-2.40439 -10.74366,-5.35796 -13.90346,-10.34393c-0.97654,-1.54107 -1.26529,-2.89086 -1.47812,-4.67864c-0.19075,-1.60307 -0.80002,-2.87381 -1.52936,-4.28745c-1.60257,-3.10526 -2.24186,-6.57586 -2.11275,-10.06387c0.50241,-13.54729 9.98247,-26.14418 20.38077,-33.4976c2.46379,-1.74207 4.62751,-3.51582 5.14343,-6.72983c0.5388,-3.35492 -0.11328,-6.91566 -0.6115,-10.25126c-0.49215,-3.2965 -1.2565,-6.57987 -1.31783,-9.92287c-0.06395,-3.50189 0.85379,-6.70623 2.41875,-9.77048c2.9399,-5.75587 7.66574,-10.12156 13.09439,-13.31057c5.22887,-3.07178 10.94542,-5.67579 13.50455,-11.71774c2.71266,-6.40349 1.1071,-13.98822 5.5638,-19.70031c1.84541,-2.36529 4.43385,-4.46549 7.40586,-5.00681c2.85026,-0.51922 5.96381,0.33574 8.68862,1.2123z" id="leaf-2" fill="#DDE3E9"/>
       <path d="m515.36881,21.95914c0.41107,-0.8374 1.57951,-0.90183 2.23562,-0.32078c0.86357,0.76496 0.43145,1.74568 0.03731,2.61509c-1.21127,2.67245 -1.94516,5.48014 -2.43571,8.39835c-1.02034,6.06708 -0.79079,12.21235 -1.13535,18.34209c-0.34433,6.12457 -1.73935,11.95435 -5.14032,16.99293c-3.20646,4.75077 -6.9393,9.08896 -10.17242,13.83498c-2.84962,4.18299 -5.86346,8.59004 -6.38462,13.86472c-0.50213,5.07704 0.97363,10.10677 1.4488,15.13609c0.98374,10.41106 -0.88599,20.55467 -4.57683,30.15432c-1.71412,4.4576 -3.6776,8.84525 -6.42994,12.70849c-1.58458,2.22456 -3.7219,5.23295 -6.42216,6.00598c-1.24518,0.35651 -2.92428,-0.11314 -3.20539,-1.6503c-0.26439,-1.44207 1.07989,-2.84177 1.79824,-3.90383c3.11007,-4.59725 5.47255,-9.68292 7.38318,-14.94331c1.85088,-5.09528 3.37961,-10.33358 3.90482,-15.78983c0.48723,-5.06357 0.08196,-10.01192 -0.73134,-15.03011c-0.82862,-5.1138 -1.75164,-10.2825 -0.82506,-15.43552c0.94068,-5.23383 3.79771,-9.65717 6.86662,-13.77181c3.24581,-4.35224 6.80227,-8.38789 10.41483,-12.40627c3.52035,-3.91553 5.91989,-8.06261 7.08818,-13.3556c2.30833,-10.4571 1.49166,-21.68902 6.28154,-31.44568z" id="middle-thing-2" fill="#C5CFD6"/>
      </g>
      <g id="Big-Ass-Leaf-3">
       <path d="m431.92991,49c4.84174,0 9.09843,2.70614 12.03156,6.54624c3.43349,4.49539 4.12695,9.98515 5.52119,15.34284c0.69376,2.66631 1.88699,5.31316 3.97803,7.12468c1.90191,1.64746 4.31639,1.97714 6.5929,2.78205c4.54967,1.60856 8.22346,5.48348 9.67434,10.21162c1.77004,5.76737 -0.10477,11.58367 0.21806,17.42852c0.29632,5.36773 5.31561,8.71661 9.35395,11.28975c3.98199,2.53738 7.56929,4.91258 8.76861,9.85559c1.2718,5.24258 1.69847,11.09433 -0.06305,16.27323c-2.93281,8.62313 -11.51595,12.42026 -19.80946,13.00904c-7.52665,0.5342 -16.99054,-0.30459 -22.64299,-6.06537c-3.38234,-3.44737 -4.60724,-8.26867 -4.45527,-13.0655c0.09441,-2.98281 0.65478,-5.93802 1.37931,-8.82044c0.51347,-2.04302 1.20724,-4.07725 1.40489,-6.18833c0.52535,-5.61649 -4.3977,-6.69525 -8.58831,-8.23731c-5.32506,-1.95989 -9.05306,-5.66166 -11.64539,-10.81891c-2.41417,-4.80185 -3.4271,-10.19218 -1.97988,-15.47898c0.73914,-2.69955 2.07977,-5.14879 3.89793,-7.23195c0.80036,-0.9169 1.92842,-1.68166 2.65081,-2.64497c0.67427,-0.89965 0.52748,-2.06529 0.29511,-3.11895c-1.07445,-4.8671 -4.42207,-8.89729 -5.61926,-13.75561c-1.08084,-4.38528 -0.4419,-9.84304 3.36041,-12.67215c1.64274,-1.22242 3.66861,-1.7516 5.67651,-1.76509z" id="leaf-3" fill="#C5CFD6" opacity="0.5"/>
       <path d="m438.52739,61.68151c5.13172,5.76386 6.52659,13.58422 6.93595,21.16398c0.22931,4.25036 -0.00936,8.73347 1.17493,12.85616c1.01329,3.52859 3.38882,6.22592 5.83746,8.7752c4.92901,5.1318 10.42599,10.34892 11.86768,17.77592c0.84592,4.35858 0.27492,8.86051 1.44381,13.1711c1.06284,3.91817 2.93414,7.76765 5.21027,11.07635c1.83263,2.66439 4.22024,4.70426 6.22357,7.18797c0.61117,0.75817 1.4867,1.87424 1.23444,2.94451c-0.29517,1.25347 -1.80937,1.65027 -2.88369,1.45328c-2.50483,-0.45891 -4.61329,-2.9809 -6.25106,-4.81435c-2.39486,-2.68103 -4.42991,-5.56469 -6.08399,-8.79935c-1.83625,-3.59226 -3.3148,-7.4041 -3.94652,-11.43426c-0.65559,-4.18104 -0.32931,-8.53836 -1.82629,-12.55096c-2.51903,-6.75164 -8.629,-10.736 -13.04653,-15.99829c-5.50393,-6.55717 -4.68308,-14.71818 -4.11934,-22.78414c0.30967,-4.43261 0.61753,-9.43831 -1.50664,-13.48541c-0.81088,-1.54487 -2.61873,-2.98529 -2.96737,-4.74127c-0.31934,-1.60886 1.42356,-3.23466 2.70332,-1.79644z" id="middle-thing-3" fill="#AFB9C5"/>
      </g>
      <path d="m444,157c0,32.80904 5.09639,50 32.00008,50c26.90368,0 31.99992,-17.19096 31.99992,-50l-64,0z" id="Base-Shadow" fill="#2FA959"/>
      <path d="m444,157c0,32.80904 5.09639,50 32.00008,50c26.90368,0 24.99992,-17.19096 24.99992,-50l-57,0z" id="Base" fill="#36B361"/>
     </g>
    </g>
   </g>
  </g>
 </g>
</svg>