<?xml version="1.0" encoding="UTF-8"?>
<svg width="375px" height="812px" viewBox="0 0 375 812" version="1.1" xmlns="http://www.w3.org/2000/svg" xmlns:xlink="http://www.w3.org/1999/xlink">
    <!-- Generator: sketchtool 63.1 (101010) - https://sketch.com -->
    <title>2B53E532-7EDA-4106-8591-1CF9280B7C61</title>
    <desc>Created with sketchtool.</desc>
    <defs>
        <filter x="-84.7%" y="-160.0%" width="269.4%" height="420.0%" filterUnits="objectBoundingBox" id="filter-1">
            <feGaussianBlur stdDeviation="24" in="SourceGraphic"></feGaussianBlur>
        </filter>
        <filter x="0.0%" y="0.0%" width="100.0%" height="100.0%" filterUnits="objectBoundingBox" id="filter-2">
            <feGaussianBlur stdDeviation="0" in="SourceGraphic"></feGaussianBlur>
        </filter>
        <linearGradient x1="0%" y1="59.0273437%" x2="100%" y2="59.0273437%" id="linearGradient-3">
            <stop stop-color="#F24015" offset="0%"></stop>
            <stop stop-color="#FF7755" offset="100%"></stop>
        </linearGradient>
    </defs>
    <g id="Page-1" stroke="none" stroke-width="1" fill="none" fill-rule="evenodd">
        <g id="01-B-05-Rating-Options---Awesome---Thank-You">
            <g id="Scene/Home" transform="translate(-421.000000, 0.000000)">
                <g id="Background-Shape-2" opacity="0.345889137" transform="translate(0.000000, 436.000000)">
                    <path d="M0.314656077,200.777658 C10.8287585,111.038582 574.955113,-62.1672887 679.683204,22.8317905 C784.411296,107.83087 683.728225,267.351906 464.256829,308.201184 C244.785433,349.050462 -10.1994463,290.516733 0.314656077,200.777658 Z" id="Background-Shape-1" fill="#F2F2F2" transform="translate(360.647297, 160.729412) scale(-1, 1) translate(-360.647297, -160.729412) "></path>
                    <path d="M244.226969,259.086122 C253.936394,182.849266 774.88839,35.7041032 871.601312,107.914146 C968.314234,180.124189 943.834307,332.009648 741.159745,366.712708 C538.485182,401.415768 234.517543,335.322978 244.226969,259.086122 Z" fill="#DDE3E9"></path>
                </g>
                <g id="Hanging-Lamp" transform="translate(463.000000, 0.000000)">
                    <g id="Light" transform="translate(0.000000, 188.000000)">
                        <ellipse id="Hanging-Lamp-Light---Blurr" fill="#FF5930" filter="url(#filter-1)" cx="49.5" cy="44.5" rx="42.5" ry="22.5"></ellipse>
                        <ellipse id="Hanging-Lamp-Light" fill="#FF5930" opacity="0.298804874" filter="url(#filter-2)" cx="49.5" cy="34.5" rx="42.5" ry="22.5"></ellipse>
                        <path d="M99,50 C99,22.3857625 76.8380951,0 49.5,0 C22.1619049,0 -7.10542736e-15,22.3857625 -7.10542736e-15,50" id="Hanging-Lamp-Shadow" fill="url(#linearGradient-3)"></path>
                        <path d="M99,50 C99,22.3857625 76.8380951,0 49.5,0 C22.1619049,0 12,22.3857625 12,50" id="Hanging-Lamp" fill="#FF5930"></path>
                    </g>
                    <rect id="Wire" fill="#FF5930" x="47" y="0" width="5" height="196"></rect>
                </g>
                <g id="Hanging-Lamp-2" opacity="0.7" transform="translate(582.000000, 0.000000)">
                    <g id="Light" transform="translate(0.000000, 140.000000)">
                        <ellipse id="Hanging-Lamp-Light-2" fill="#F2F2F2" cx="37" cy="27.8421053" rx="31.7676768" ry="18.1578947"></ellipse>
                        <path d="M74,40.3508772 C74,18.0657031 57.4345357,0 37,0 C16.5654643,0 -7.10542736e-15,18.0657031 -7.10542736e-15,40.3508772" id="Hanging-Lamp-2" fill="#DDE3E9"></path>
                    </g>
                    <rect id="Wire-2" fill="#DDE3E9" x="35" y="0" width="5" height="163"></rect>
                </g>
                <g id="Big-Leaf-Plant" transform="translate(716.500000, 684.500000) scale(-1, 1) translate(-716.500000, -684.500000) translate(661.000000, 581.000000)">
                    <g id="Big-Ass-Leaf-1" transform="translate(18.000000, 0.000000)">
                        <path d="M20.6332581,1.01722756 C22.9733349,0.713755651 25.4709076,0.820879995 27.6471104,1.80135243 C32.2745833,3.88649674 33.5899498,9.68946718 33.5264929,14.4061277 C33.4580814,19.4827769 32.4424642,25.0277613 36.0785456,29.1181404 C37.7499798,30.9986605 39.8291141,32.4378062 41.4703506,34.3528562 C43.2240385,36.3993453 44.6000634,38.7409357 45.6189069,41.2554321 C47.4896245,45.8740853 48.4078054,51.3055615 46.6971364,56.1505591 C45.1909225,60.4162952 41.4014566,64.2664875 42.2202683,69.1170423 C43.0743609,74.1770744 47.8803969,78.0455113 50.8851514,81.8144408 C54.2856845,86.0796885 57.4166522,91.5310659 57.9309995,97.1244905 C58.4242073,102.48498 56.226023,107.906344 52.8525155,111.958436 C46.1122391,120.055186 35.9805582,124.02448 25.7647143,124 C21.4273451,123.98922 16.5165626,123.781282 12.7735298,121.307131 C11.6166913,120.54239 11.0063846,119.684418 10.3186765,118.491717 C9.70207247,117.42221 8.8875432,116.726542 7.94474193,115.969759 C5.87341071,114.307531 4.37754213,112.067249 3.42291638,109.559488 C-0.2841018,99.819153 2.67875594,87.7691637 7.86774232,79.1196702 C9.09730299,77.0704284 10.1039638,75.0984434 9.50663822,72.6558677 C8.88331087,70.1061147 7.35130761,67.8063762 5.99626809,65.6146468 C4.65727369,63.4485346 3.12863326,61.382093 2.08208364,59.0400508 C0.985994196,56.5865948 0.677344189,54.0174139 0.871010913,51.3323105 C1.23499425,46.2885191 3.28617577,41.634067 6.19020238,37.5777449 C8.98731738,33.6706194 12.2715973,29.9321054 12.2789564,24.8125939 C12.2870376,19.3866091 8.86969612,14.5598609 10.3255341,9.04331058 C10.9283463,6.75900711 12.1391176,4.41529797 14.0903647,3.04582416 C15.9616472,1.73239807 18.4324438,1.30263928 20.6332581,1.01722756 Z" id="leaf-1" fill="#DDE3E9"></path>
                        <path d="M19.1041868,9.69145061 C19.1480692,8.96272022 19.9624147,8.52565481 20.6034852,8.71581353 C21.4473106,8.96623813 21.4310823,9.80317255 21.4088042,10.5488156 C21.3405121,12.8407449 21.6530308,15.068126 22.1720569,17.2919473 C23.2507969,21.9155194 25.2444534,26.1753815 26.8239294,30.616689 C28.4020289,35.0542785 29.142822,39.6359555 28.2170427,44.3315588 C27.3443089,48.7588579 25.9732175,53.0714065 25.0800588,57.5042939 C24.2928118,61.4113147 23.4551433,65.5314874 24.6540198,69.4285593 C25.8076339,73.1797744 28.3581157,76.2347288 30.1946837,79.6247302 C33.9965915,86.6422491 35.6832885,94.4273476 35.9088918,102.4389 C36.0134444,106.159158 35.9192922,109.913625 35.1062303,113.562388 C34.6382591,115.663355 34.0093845,118.502719 32.3132898,119.953232 C31.5311771,120.62214 30.193516,120.853439 29.5352498,119.862862 C28.9172337,118.93378 29.4594019,117.495467 29.6556007,116.505211 C30.5052841,112.218554 30.6762212,107.83776 30.4727948,103.485107 C30.275911,99.2689914 29.806632,95.0599168 28.5565709,91.0333511 C27.3963465,87.2966401 25.633751,83.9403474 23.5592825,80.6715195 C21.4454135,77.3403555 19.2478612,74.0020841 18.3744181,70.0549976 C17.4869742,66.0461584 18.2079333,61.9670357 19.1719546,58.0347568 C20.1914306,53.8755149 21.5267846,49.8355892 22.9073026,45.7890397 C24.2526649,41.845979 24.7295299,38.1151423 23.9868336,33.9882711 C22.5196727,25.8349489 18.5925145,18.1821431 19.1041868,9.69145061 Z" id="middle-thing-1" fill="#C5CFD6"></path>
                    </g>
                    <g id="Big-Ass-Leaf-2" transform="translate(26.000000, 10.000000)">
                        <path d="M74.2870023,1.37012509 C77.1842349,2.30214385 80.0617313,3.80591579 82.1270109,6.16387345 C86.5184823,11.178148 85.1710586,18.7566532 82.7467955,24.291916 C80.1373753,30.2495842 76.1831029,36.2380174 78.4122013,43.0737303 C79.4367468,46.2162718 81.159611,49.0623834 82.1315174,52.2290514 C83.1699022,55.612956 83.6180881,59.1371092 83.5609867,62.668496 C83.4552754,69.1545955 81.8268352,76.0753514 77.4056568,80.8538389 C73.5129861,85.060978 67.147973,87.5182947 65.6923342,93.6982012 C64.1737375,100.14495 67.8863299,107.363715 69.5347189,113.471665 C71.4002869,120.384003 72.3586048,128.54848 70.1755907,135.437803 C68.0838158,142.040379 62.8034047,147.230705 56.8259282,150.155836 C44.8825862,156.001034 31.0157416,155.101658 19.0398514,149.439191 C13.9553262,147.034797 8.29618838,144.081226 5.13639386,139.09526 C4.15984813,137.554193 3.87109564,136.204404 3.65827338,134.416624 C3.4675159,132.813545 2.85825364,131.542814 2.12891256,130.129174 C0.526342801,127.023911 -0.112949078,123.553314 0.0161551121,120.065295 C0.518570125,106.51801 9.99863482,93.9211185 20.3969328,86.567701 C22.8607177,84.8256274 25.0244443,83.0518763 25.5403604,79.8378678 C26.0791587,76.4829471 25.4270841,72.9222073 24.9288648,69.5866082 C24.4367119,66.2901104 23.6723573,63.0067425 23.6110308,59.6637415 C23.5470754,56.1618453 24.4648216,52.9575065 26.0297807,49.8932636 C28.9696807,44.1373897 33.6955175,39.7717038 39.1241727,36.5826867 C44.3530403,33.5109118 50.069588,30.9069047 52.6287177,24.8649505 C55.3413771,18.4614575 53.7358191,10.8767333 58.1925186,5.16463531 C60.037929,2.7993459 62.6263657,0.699152698 65.5983849,0.157834345 C68.4486443,-0.361388748 71.5621896,0.493572531 74.2870023,1.37012509 Z" id="leaf-2" fill="#DDE3E9"></path>
                        <path d="M68.3688134,11.959143 C68.7798762,11.1217403 69.9483208,11.0573103 70.6044344,11.6383554 C71.4679997,12.4033168 71.0358761,13.3840436 70.6417394,14.2534499 C69.4304738,16.9259009 68.696578,19.7335898 68.2060306,22.6518008 C67.1856913,28.7188789 67.4152432,34.8641511 67.0706819,40.9938863 C66.7263455,47.1184599 65.3313263,52.9482367 61.9303626,57.9868235 C58.7239001,62.7375899 54.9910584,67.0757763 51.7579424,71.8218036 C48.9083164,76.0047936 45.8944841,80.4118396 45.3733157,85.6865179 C44.8711948,90.7635616 46.346953,95.7932945 46.8221202,100.82261 C47.8058579,111.233667 45.9361286,121.377277 42.2452949,130.976931 C40.5311689,135.434526 38.5676933,139.822179 35.8153513,143.685416 C34.2307702,145.909984 32.093453,148.918372 29.3931874,149.691403 C28.1480065,150.047913 26.4689135,149.578263 26.1877954,148.041104 C25.9234099,146.599031 27.2676853,145.199328 27.9860392,144.137274 C31.09611,139.540021 33.458591,134.454346 35.3692163,129.19396 C37.2200966,124.098675 38.7488289,118.860379 39.2740393,113.404127 C39.761267,108.340563 39.3559998,103.392208 38.5426998,98.3740169 C37.7140769,93.2602177 36.7910619,88.0915207 37.7176405,82.938501 C38.6583229,77.704675 41.5153545,73.2813323 44.5842552,69.1666851 C47.8300682,64.8144454 51.3865254,60.7788029 54.9990893,56.7604194 C58.5194394,52.8448878 60.9189822,48.6978074 62.0872679,43.4048181 C64.3955975,32.9477239 63.5789291,21.7158017 68.3688134,11.959143 Z" id="middle-thing-2" fill="#C5CFD6"></path>
                    </g>
                    <g id="Big-Ass-Leaf-3" transform="translate(0.000000, 49.000000)">
                        <path d="M10.9299093,-1.35394758e-13 C15.7716471,-1.35394758e-13 20.0283441,2.70613962 22.9614663,6.54624176 C26.3949643,11.0416268 27.0884249,16.5313856 28.4826554,21.8890841 C29.1764206,24.555386 30.3696479,27.2022396 32.460689,29.0137565 C34.3626045,30.6612175 36.7770779,30.9908978 39.05359,31.7958073 C43.6032642,33.4043716 47.2770523,37.2792925 48.7279291,42.0074301 C50.4979744,47.774798 48.6231639,53.5911004 48.945987,59.4359479 C49.2423142,64.8036842 54.2616048,68.1525594 58.2999393,70.7256976 C62.2819321,73.263076 65.869228,75.6382805 67.0685464,80.5812906 C68.3403477,85.8238675 68.7670224,91.6756161 67.0055045,96.8545155 C64.0726868,105.47765 55.4895508,109.274777 47.196042,109.863559 C39.6693904,110.397761 30.2054954,109.558974 24.5530452,103.798193 C21.1707116,100.350821 19.945811,95.5295202 20.0977815,90.7326862 C20.192192,87.7498786 20.7525643,84.794675 21.477089,81.9122458 C21.9905605,79.8692311 22.6843257,77.8349996 22.8819787,75.7239158 C23.4073277,70.1074292 18.484275,69.0286748 14.2936653,67.4866113 C8.96860651,65.5267225 5.24060851,61.8249544 2.64827789,56.6676991 C0.2341091,51.8658462 -0.778824596,46.4755247 0.668397569,41.1887185 C1.40754071,38.4891662 2.74817033,36.0399327 4.56633454,33.9567666 C5.36669225,33.0398725 6.4947459,32.2751143 7.21713878,31.3117951 C7.89141274,30.4121535 7.74461958,29.246509 7.51224784,28.1928492 C6.43779502,23.3257503 3.09018012,19.2955565 1.8929936,14.4372407 C0.812145225,10.0519583 1.45109137,4.59419506 5.25339961,1.76509188 C6.89614295,0.542670863 8.92201034,0.0134883509 10.9299093,-1.35394758e-13 Z" id="leaf-3" fill="#C5CFD6" opacity="0.5"></path>
                        <path d="M17.5273893,12.6815074 C22.6591128,18.4453742 24.0539772,26.2657259 24.4633429,33.8454852 C24.6926481,38.0958468 24.4539773,42.5789589 25.6382677,46.7016528 C26.651561,50.2302372 29.0270904,52.92757 31.4757316,55.4768459 C36.404736,60.6086479 41.9017164,65.8257707 43.3434087,73.2527679 C44.1893304,77.6113491 43.6183332,82.113282 44.7872157,86.4238701 C45.8500559,90.3420448 47.7213555,94.1915236 49.9974891,97.5002184 C51.830118,100.164615 54.217732,102.204475 56.2210558,104.688192 C56.8322343,105.446356 57.7077632,106.562429 57.4554973,107.632704 C57.160331,108.886169 55.6461312,109.282974 54.5718107,109.085983 C52.0669761,108.627069 49.9585163,106.105083 48.3207515,104.271625 C45.9258867,101.590603 43.8908409,98.7069447 42.2367618,95.4722784 C40.4005075,91.880017 38.9219573,88.0681798 38.290235,84.0380214 C37.6346457,79.856983 37.9609298,75.4996565 36.4639505,71.4870642 C33.9449166,64.7354197 27.8349451,60.7510585 23.4174211,55.4887658 C17.9134921,48.9316027 18.7343382,40.7705947 19.2980846,32.7046317 C19.6077524,28.2720221 19.9156075,23.2663194 17.7914377,19.2192223 C16.9805613,17.6743492 15.1727058,16.2339314 14.8240652,14.4779518 C14.5047298,12.8690879 16.2476306,11.2432854 17.5273893,12.6815074 Z" id="middle-thing-3" fill="#AFB9C5"></path>
                    </g>
                    <path d="M23,157 C23,189.809043 28.096393,207 55.0000764,207 C81.9037597,207 87,189.809043 87,157 L23,157 Z" id="Base-Shadow" fill="#2FA959"></path>
                    <path d="M23,157 C23,189.809043 28.096393,207 55.0000764,207 C81.9037597,207 80,189.809043 80,157 L23,157 Z" id="Base" fill="#36B361"></path>
                </g>
            </g>
        </g>
    </g>
</svg>